Coordinates
version=1
nRows=8
nColumns=27
inDegrees=yes

Units are S.I. units (second, meters, Newtons, ...)
Angles are in degrees.

endheader
time	pelvis_rotation	pelvis_list	pelvis_tilt	pelvis_tx	pelvis_ty	pelvis_tz	hip_flexion_r	hip_adduction_r	hip_rotation_r	knee_angle_r	knee_adduction_r	knee_rotation_r	ankle_angle_r	ankle_rot_r	subtalar_angle_r	mtp_angle_r	hip_flexion_l	hip_adduction_l	hip_rotation_l	knee_angle_l	knee_adduction_l	knee_rotation_l	ankle_angle_l	ankle_rot_l	subtalar_angle_l	mtp_angle_l
      0.66000000	     -2.92555061	      4.66478259	    -11.73110789	      1.34196534	      0.62792938	     -0.41742293	     10.04924169	     -4.83608100	      5.78956019	    -34.57880327	     -7.51466484	     27.32524946	    -44.34095388	     11.80524566	      0.00001637	      0.00000000	     25.42094225	      5.90096171	     -3.86602886	    -25.43303720	     -6.32521722	     19.56375756	    -19.35269732	     12.73112948	      0.00000126	      0.00000000
      0.67000000	     -2.27295289	      4.33762673	    -11.68241220	      1.34768333	      0.63017275	     -0.41793152	     10.81087503	     -3.80601735	      7.33161868	    -35.25162498	     -7.00778268	     26.90249991	    -43.80844647	     10.57816777	      0.00001574	      0.00000000	     24.28036372	      5.82682879	     -3.15459899	    -24.41841706	     -6.27798193	     19.26924952	    -19.98429292	     12.58510850	      0.00000176	      0.00000000
      0.68000000	     -1.69442043	      3.98948371	    -11.67926693	      1.35315627	      0.63230841	     -0.41826266	     11.82212172	     -2.82457088	      8.42016338	    -36.04533225	     -6.58424235	     26.45090807	    -43.40568060	      9.46558465	      0.00001606	      0.00000000	     23.24355862	      5.64818440	     -2.71673705	    -23.42938129	     -6.26839892	     19.00115464	    -20.58564925	     12.66197681	      0.00000463	      0.00000000
      0.69000000	     -1.18635346	      3.63384649	    -11.70807427	      1.35839008	      0.63427597	     -0.41844879	     13.07002089	     -1.92143109	      8.96059554	    -36.98147093	     -6.30385968	     26.08434890	    -42.99255120	      8.57232669	      0.00001104	      0.00000000	     22.32921237	      5.37879295	     -2.65239925	    -22.52081067	     -6.30247048	     18.85181436	    -21.17981921	     12.91959968	      0.00000314	      0.00000000
      0.70000000	     -0.70275213	      3.25258453	    -11.77227637	      1.36343440	      0.63602527	     -0.41856468	     14.51519782	     -1.07230318	      8.86064631	    -38.01093993	     -6.25052893	     25.81192620	    -42.48015183	      7.88794052	      0.00001337	      0.00000000	     21.56422985	      5.04511375	     -2.98150113	    -21.73673428	     -6.44425273	     18.91201217	    -21.77370261	     13.20493764	      0.00000276	      0.00000000
      0.71000000	     -0.23015751	      2.86835490	    -11.86869777	      1.36828732	      0.63753259	     -0.41864668	     16.13513189	     -0.32341384	      8.21478396	    -39.11488622	     -6.37171105	     25.60568383	    -41.88128654	      7.42489597	      0.00001414	      0.00000000	     20.92495828	      4.68113571	     -3.54725918	    -21.06465602	     -6.63884183	     19.16136183	    -22.33518810	     13.47876910	      0.00000333	      0.00000000
      0.72000000	      0.15197796	      2.54299359	    -12.02983642	      1.37293618	      0.63869847	     -0.41865634	     18.02470956	      0.23950547	      7.01695696	    -40.39666557	     -6.70771391	     25.72981327	    -41.23736492	      6.96882259	      0.00001034	      0.00000000	     20.45343469	      4.36193414	     -4.34818303	    -20.54609739	     -6.88263015	     19.46483311	    -22.68673598	     13.74837714	      0.00000626	      0.00000000
      0.73000000	      0.57167036	      2.25551789	    -12.14444208	      1.37735338	      0.63963175	     -0.41865827	     19.96979138	      0.63514580	      5.54707253	    -41.72030925	     -7.06424986	     25.67840193	    -40.47019684	      6.73310435	      0.00000844	      0.00000000	     20.02102381	      4.03681804	     -5.02794603	    -20.17667568	     -7.01608844	     19.84580176	    -23.08164543	     13.91016337	      0.00001008	      0.00000000
